# xmcd
#
# Track frame offsets: 
#        150
#        19297
#        39850
#        59242
#        82945
#        100762
#        119710
#        138076
#        154797
#        174960
#        194105
#        210776
#
# Disc length: 3060 seconds
#
# Revision: 3
# Processed by: cddbd v1.5.2PL0 Copyright (c) Steve Scherf et al.
# Submitted via: ExactAudioCopy v1.0b3
#
DISCID=9d0bf20c
DTITLE=Sheryl Crow - Wildflower
DYEAR=2006
DGENRE=Country
TTITLE0=I Know Why
TTITLE1=Perfect Lie
TTITLE2=Good Is Good
TTITLE3=Chances Are
TTITLE4=Wildflower
TTITLE5=Lifetimes
TTITLE6=Letter to God
TTITLE7=Live It Up
TTITLE8=I Don't Wanna Know
TTITLE9=Always on Your Side
TTITLE10=Where Has All the Love Gone
TTITLE11=Always on Your Side - featuring Sting
EXTD=
EXTT0=
EXTT1=
EXTT2=
EXTT3=
EXTT4=
EXTT5=
EXTT6=
EXTT7=
EXTT8=
EXTT9=
EXTT10=
EXTT11=
PLAYORDER=
